<?xml version="1.0" encoding="UTF-8"?>
<svg width="500" height="500" version="1.1" viewBox="0 0 132.29167 132.29167" xmlns="http://www.w3.org/2000/svg" xmlns:inkscape="http://www.inkscape.org/namespaces/inkscape" xmlns:sodipodi="http://sodipodi.sourceforge.net/DTD/sodipodi-0.dtd">
 <g inkscape:groupmode="layer" inkscape:label="Lớp 1">
  <circle cx="66.145828" cy="66.145828" r="65.882301" fill="#f30" fill-rule="evenodd" stroke-opacity="0" style="paint-order:fill markers stroke"/>
  <g>
   <g fill="#fcec34" stroke="#fcec34">
    <path d="m66.199321 129.3668c-32.526122 6.90143-84.369247-40.563331-57.0806454-90.317134l14.5757064 15.898622c-10.78667 43.023405 29.187302 52.822712 42.488233 59.777152z" stroke-width=".26458333" sodipodi:nodetypes="cccc"/>
    <path d="m66.199321 129.3668c32.526118 6.90144 84.369239-40.56333 57.080639-90.317131l-14.5757 15.898621c10.78667 43.02341-29.220712 52.82271-42.521645 59.77715z" stroke-width=".264583" sodipodi:nodetypes="cccc"/>
   </g>
   <g fill-opacity="0" stroke="#760724" stroke-width=".79375">
    <path d="m13.796131 38.0811c-23.4851896 48.859927 14.682304 87.12683 52.396948 87.28888" sodipodi:nodetypes="cc"/>
    <path d="m16.34747 40.372582c-22.1855794 46.542764 15.128614 81.963628 49.851515 81.772788" sodipodi:nodetypes="cc"/>
    <path d="m18.757068 42.664062c-21.4132494 47.377365 23.98119 80.074098 47.436011 75.973218" sodipodi:nodetypes="cc"/>
    <path d="m21.214518 44.984802c-19.1031343 44.727175 23.030366 73.764898 44.984803 71.461188" sodipodi:nodetypes="cc"/>
    <g transform="matrix(-1,0,0,1,132.38616,0)">
     <path d="m13.796131 38.0811c-23.4851896 48.859927 16.083278 87.4065 52.487899 87.28888" sodipodi:nodetypes="cc"/>
     <path d="m16.34747 40.372582c-22.1855794 46.542764 17.247393 82.180058 49.869677 81.772788" sodipodi:nodetypes="cc"/>
     <path d="m18.757068 42.664062c-21.4132494 47.377365 23.98119 80.074098 47.436011 75.973218" sodipodi:nodetypes="cc"/>
     <path d="m21.214518 44.984802c-19.1031343 44.727175 23.030366 73.764898 44.984803 71.461188" sodipodi:nodetypes="cc"/>
    </g>
   </g>
  </g>
  <g>
   <g fill="#fff" stroke="#fff" stroke-width=".264583px">
    <path d="m66.216024 103.34978c-30.82849 0.44697-51.38617-11.020022-48.29759-43.01533 4.377095 1.071677 6.39056 2.610455 9.55571 4.370349 0.173457-9.570769 2.453264-13.799095 7.563221-21.691109 4.339248 3.340365 6.100932 5.87753 8.571638 9.525001 3.775517-10.37457 9.734899-18.907842 22.540205-21.669061z" sodipodi:nodetypes="cccccc"/>
    <path d="m66.082388 103.34978c30.828491 0.44697 51.386162-11.02002 48.297592-43.015328-4.37709 1.071676-6.39056 2.610453-9.55572 4.370347-0.17345-9.570769-2.45326-13.799095-7.563212-21.691109-4.339248 3.340365-6.100932 5.87753-8.571638 9.525002-3.775518-10.374571-9.734898-18.907843-22.540202-21.669062z" sodipodi:nodetypes="cccccc"/>
   </g>
   <g fill="none" stroke-width=".264583px">
    <path d="m22.46122 61.916958c-1.157686-0.561835-2.637533-1.152752-4.542786-1.582507-2.323076 21.103004 5.652739 32.11516 18.158167 37.957521" stroke="#fcea0a" sodipodi:nodetypes="ccc"/>
    <g stroke="#fc0704">
     <path d="m22.442616 61.907656c1.833602 0.811005 3.432732 1.815368 5.031526 2.797142-0.335672-7.034851 2.006938-14.225808 7.563223-21.691108 2.865175 2.057681 5.728285 4.40511 8.571638 9.525 4.889505-14.719869 13.377449-19.158482 22.540205-21.66906" sodipodi:nodetypes="ccccc"/>
     <path d="m36.031289 98.268585c7.195596 3.306475 16.222565 5.595345 30.184737 5.081195" sodipodi:nodetypes="cc"/>
    </g>
    <g transform="matrix(-1,0,0,1,132.29842,0)">
     <path d="m22.46122 61.916958c-1.157686-0.561835-2.637533-1.152752-4.542786-1.582507-2.098502 20.923232 5.620152 32.095608 18.158167 37.957521" stroke="#fcea0a" sodipodi:nodetypes="ccc"/>
     <g stroke="#fc0704">
      <path d="m22.442616 61.907656c1.833602 0.811005 3.432732 1.815368 5.031526 2.797142-0.335672-7.034851 2.006938-14.225808 7.563223-21.691108 2.865175 2.057681 5.728285 4.40511 8.571638 9.525 4.889505-14.719869 13.377449-19.158482 22.540205-21.66906" sodipodi:nodetypes="ccccc"/>
      <path d="m36.031289 98.268585c7.195596 3.306475 16.222565 5.595345 30.184737 5.081195" sodipodi:nodetypes="cc"/>
     </g>
    </g>
   </g>
   <g fill="none" stroke="#6a0404">
    <path d="m66.216024 103.34978c-3.919333-7.230596-7.702169-14.490311-2.385296-23.691298" stroke-width=".661458" sodipodi:nodetypes="cc"/>
    <path d="m66.216024 103.34978c-9.054252-8.255568-14.07722-24.299943-9.803077-38.101642" stroke-width=".661458" sodipodi:nodetypes="cc"/>
    <path d="m58.863738 52.125663c4.803388 3.788893 8.101066 16.163561-4.777441 12.361217" stroke-linecap="round" stroke-width=".661" sodipodi:nodetypes="cc"/>
    <path d="m66.216024 103.34978c-19.801554-9.356443-22.40994-26.702763-24.789249-38.737372" stroke-width=".661458" sodipodi:nodetypes="cc"/>
    <path d="m43.734286 53.140047c3.703652 5.263833-0.490378 16.526399-8.851262 9.01509" stroke-linecap="round" stroke-width=".661" sodipodi:nodetypes="cc"/>
    <path d="m33.545385 78.949777c4.047255 8.398372 11.810559 18.521026 32.670639 24.400003" stroke-width=".661458" sodipodi:nodetypes="cc"/>
    <path d="m27.474144 64.704799c12.671031 8.114157 8.226126 19.11023-1.130544 13.483993" stroke-linecap="round" stroke-width=".661" sodipodi:nodetypes="cc"/>
    <g transform="matrix(-1,0,0,1,132.43205,0)">
     <path d="m66.216024 103.34978c-3.919333-7.230596-7.702169-14.490311-2.385296-23.691298" stroke-width=".661458" sodipodi:nodetypes="cc"/>
     <path d="m66.216024 103.34978c-9.054252-8.255568-14.07722-24.299943-9.803077-38.101642" stroke-width=".661458" sodipodi:nodetypes="cc"/>
     <path d="m58.863738 52.125663c4.803388 3.788893 8.101066 16.163561-4.777441 12.361217" stroke-linecap="round" stroke-width=".661" sodipodi:nodetypes="cc"/>
     <path d="m66.216024 103.34978c-19.801554-9.356443-22.40994-26.702763-24.789249-38.737372" stroke-width=".661458" sodipodi:nodetypes="cc"/>
     <path d="m43.734286 53.140047c3.703652 5.263833-0.490378 16.526399-8.851262 9.01509" stroke-linecap="round" stroke-width=".661" sodipodi:nodetypes="cc"/>
     <path d="m33.545385 78.949777c4.047255 8.398372 11.810559 18.521026 32.670639 24.400003" stroke-width=".661458" sodipodi:nodetypes="cc"/>
     <path d="m27.60779 64.704799c12.671031 8.114157 8.09248 19.11023-1.26419 13.483993" stroke-linecap="round" stroke-width=".661" sodipodi:nodetypes="cc"/>
    </g>
   </g>
  </g>
  <g stroke-opacity="0">
   <g fill="#fcec34">
    <path d="m66.20371 37.289713v-26.408724l-6.110221 18.25625z"/>
    <path d="m66.20371 37.289713-24.3777-8.152474 14.815084 11.133595z"/>
    <path d="m66.20371 37.289713v9.996948l-15.736543 11.272091z"/>
    <path d="m66.20371 37.289713 15.647583 21.409356-5.940065-18.334689z"/>
    <path d="m66.20371 37.289713 25.32942-8.150653-19.219199-0.001853z"/>
   </g>
   <g fill="#9c3404">
    <path d="m66.20371 37.289713v-26.408724l6.110221 18.25625z"/>
    <path d="m66.20371 37.289713-6.110221-8.152474h-18.267479z"/>
    <path d="m66.20371 37.289713-9.562616 2.981121-6.173927 18.287918z"/>
    <path d="m66.20371 37.289713v9.996948l15.647583 11.412408z"/>
    <path d="m66.20371 37.289713 9.707518 3.074667 15.621902-11.22532z"/>
   </g>
  </g>
  <g fill-opacity="0" stroke-linecap="round" stroke-linejoin="round">
   <ellipse cx="66.104332" cy="66.146103" rx="64.524788" ry="64.555794" stroke="#9b3304" stroke-width="2.64583333" style="paint-order:fill markers stroke"/>
   <g stroke="#8f1b04">
    <circle cx="66.145828" cy="66.145828" r="65.882301" stroke-width=".52705" style="paint-order:fill markers stroke"/>
    <ellipse cx="66.141235" cy="66.050758" rx="63.238945" ry="63.15419" stroke-width=".505565" style="paint-order:fill markers stroke"/>
   </g>
  </g>
  <g>
   <path d="m87.557495 125.51172c-13.362936-7.04265-28.169878-8.58255-43.008277 0 1.475515 2.425-13.863254-5.1459-18.543893-10.45219 23.07049-16.140207 52.318628-17.931299 80.261035 0-3.95763 5.56741-21.081287 15.21487-18.708865 10.45219z" fill="#9b3304" stroke-opacity="0" sodipodi:nodetypes="ccccc"/>
   <path d="m90.784777 124.41396c5.291619-2.32468 9.728173-4.99139 13.461053-7.93957-21.672392-14.31074-49.362404-17.742441-76.474857 0 4.246773 2.94089 8.58314 5.60589 13.447568 7.8056 17.303098-9.57792 33.709571-8.79406 49.566236 0.13397z" fill="#f30" stroke="#8e3404" stroke-width=".52916667" sodipodi:nodetypes="ccccc"/>
   <g fill="none" stroke="#8f1b04">
    <path d="m26.005325 115.05953c26.2077-17.953151 55.588946-15.999313 80.261035 0" stroke-width=".52916667" sodipodi:nodetypes="cc"/>
    <path d="m44.549218 125.51172c16.961145-9.22969 30.507538-6.05838 43.008277 0" stroke-width=".396875" sodipodi:nodetypes="cc"/>
   </g>
  </g>
  <g>
   <g fill="#fcec34" stroke="#000">
    <path d="m16.256712 39.161417c0.132441 0.191505 0.322672 0.179604 0.503519-0.04105 0.288847-0.349341 0.431984-0.292186 2.330946 1.002979 1.905868 1.299876 2.002225 1.395945 1.789013 1.827228-0.108955 0.219095-0.102693 0.284072 0.03541 0.378268 0.151918 0.103606 0.17295 0.08761 0.431985-0.292188 0.146-0.214064 0.402841-0.605469 0.57239-0.854061 0.285098-0.432837 0.292318-0.458265 0.133178-0.536452-0.119904-0.06155-0.222245-0.03017-0.369803 0.112009-0.117107 0.112362-0.254926 0.210596-0.301386 0.21938-0.104537 0.01977-1.092316-0.623591-3.113058-2.022051l-1.065617-0.736905 2.415436 0.686257c1.324328 0.387252 2.55857 0.743413 2.738745 0.805592 0.450439 0.155453 0.559683 0.128789 0.692511-0.154967 0.06406-0.138423 0.109273-0.24923 0.113984-0.256134-0.0069-0.0047-0.82386-1.017195-1.807785-2.244731l-1.798683-2.228407 1.989049 1.326258c1.247663 0.840843 2.018549 1.386844 2.06844 1.491704 0.0477 0.09324 0.02978 0.253015-0.0506 0.400541-0.09922 0.175149-0.100175 0.265555 0.0077 0.359429 0.137788 0.124326 0.154114 0.115225 0.592114-0.526967 0.256515-0.361275 0.633291-0.913698 0.849936-1.231341 0.383679-0.547721 0.386196-0.566238 0.227374-0.674562-0.131203-0.08949-0.193989-0.0716-0.330251 0.09852-0.328724 0.392964-0.421006 0.350261-2.382115-0.987293-1.905868-1.299876-2.052754-1.440529-1.821982-1.778889 0.150712-0.220971 0.131906-0.415911-0.03666-0.480288-0.131519-0.05936-0.206556 0.021-0.886629 0.973616-0.720265 1.026377-0.729685 1.040188-0.624864 1.212854 0.06622 0.09575 0.619853 0.797113 1.240023 1.564087 0.620173 0.766977 1.141792 1.426267 1.169094 1.475241 0.01569 0.05117-0.856007-0.169013-1.944601-0.486539l-1.980686-0.581975-0.736587 1.035481c-0.616652 0.874462-0.715874 1.049609-0.649653 1.145361z" stroke-width=".00835852"/>
    <path d="m22.754166 26.822135c0.100488 1.167345-0.466953 1.428925-1.281575 1.513086l-0.07441 0.768946c1.746203-0.05936 2.104335-1.104656 2.108399-2.24069z" stroke-opacity="0" sodipodi:nodetypes="ccccc"/>
    <path d="m23.229072 29.602245c0.01602 0.07112 0.531044 1.110006 1.156899 2.304641 1.25307 2.413198 1.412708 2.794184 1.323364 3.123299-0.04038 0.134303-0.0027 0.270179 0.07951 0.343526 0.120096 0.1072 0.167286 0.0925 0.397915-0.178598 0.14669-0.164338 0.41117-0.473404 0.59736-0.681994 0.309613-0.359629 0.319567-0.396174 0.186823-0.514663-0.107455-0.09591-0.203171-0.09047-0.38282 0.02169-0.307174 0.191448-0.506046 0.07071-0.839744-0.52242l-0.240446-0.430413 0.652446-0.769104 0.65244-0.76911 0.579911 0.279128c0.622794 0.294703 0.784211 0.495567 0.592383 0.710477-0.18055 0.202271-0.212577 0.378111-0.08616 0.490952 0.107454 0.09591 0.170871 0.05031 0.627884-0.461686 0.288442-0.31038 0.72288-0.797086 0.982416-1.087849 0.435137-0.474726 0.456309-0.523974 0.353158-0.650115-0.07719-0.09164-0.174249-0.110148-0.302469-0.04284-0.104949 0.05396-0.288678 0.09439-0.420273 0.10186-0.132264-0.0045-1.339465-0.446059-2.696332-0.987138-1.350541-0.535442-2.516208-0.985362-2.576702-0.993929-0.157557-0.02706-0.66466 0.553775-0.637555 0.714261zm1.943605 1.257878c0.542662 0.257242 1.041077 0.474991 1.090287 0.4962 0.08576 0.03116-0.01938 0.187123-0.436898 0.654866-0.411872 0.461426-0.560594 0.589885-0.606884 0.514497-0.487901-0.878421-1.094114-2.044171-1.065905-2.075773 0.01693-0.01897 0.47742 0.164929 1.0194 0.41021z" stroke="#000" stroke-width=".0084727"/>
    <circle cx="28.741497" cy="33.792889" r=".65481037" fill-rule="evenodd" stroke-width="0" style="paint-order:fill markers stroke"/>
    <path d="m26.896714 26.063067c0.198064 0.244319 0.530669 0.629613 0.747115 0.856388 0.380242 0.398388 0.403868 0.410975 0.54489 0.276376 0.122581-0.116998 0.112275-0.18915-0.113075-0.547974-0.45099-0.705662-0.469349-1.203489-0.0782-1.78765l0.155178-0.230099 1.696467 1.777423c1.877813 1.967424 1.84914 1.912804 1.508675 2.378311-0.148767 0.212272-0.156296 0.278015-0.03261 0.370789 0.147087 0.117289 0.159363 0.105572 1.280964-0.964943 1.060322-1.012028 1.128002-1.088375 1.041111-1.216228-0.09833-0.152109-0.290275-0.144597-0.480274 0.03675-0.06742 0.06435-0.218412 0.114766-0.332073 0.106123-0.185535-0.01032-0.408388-0.219263-1.888409-1.769912l-1.673067-1.752907 0.268005-0.185518c0.499792-0.359899 1.193173-0.283816 1.804911 0.209858 0.282472 0.222318 0.342087 0.235693 0.470795 0.112848 0.147097-0.140397 0.141228-0.146546-0.461291-0.777818-0.333443-0.349356-0.702825-0.699548-0.820662-0.786191l-0.218123-0.154898-1.887747 1.801765-1.875751 1.802065z" stroke-width=".0084727"/>
    <path d="m34.581761 19.980437c0.162583 0.269236 0.439042 0.696609 0.622245 0.950995 0.321842 0.446895 0.343513 0.462611 0.501705 0.348684 0.137506-0.09903 0.13722-0.171912-0.03664-0.558317-0.349661-0.760978-0.299384-1.2566 0.168383-1.78142l0.185347-0.206572 1.435915 1.993835c1.589409 2.206971 1.568521 2.148927 1.167274 2.56319-0.176545 0.189796-0.193044 0.253879-0.08329 0.362781 0.129561 0.136402 0.143331 0.126485 1.401494-0.779615 1.189424-0.856596 1.26696-0.92291 1.198477-1.061497-0.07648-0.164187-0.267632-0.183143-0.480765-0.02965-0.07563 0.05447-0.232119 0.08364-0.343512 0.05945-0.182353-0.03574-0.374355-0.273342-1.627067-2.012792l-1.416109-1.966335 0.290973-0.146898c0.544536-0.287748 1.220867-0.117033 1.758902 0.456077 0.249214 0.259052 0.306424 0.280498 0.450802 0.17652 0.165007-0.118834 0.160039-0.125732-0.349942-0.833865-0.282231-0.391892-0.599944-0.789555-0.704747-0.89158l-0.194748-0.183422-2.117593 1.52504-2.105751 1.526988z" stroke-width=".0084727"/>
    <path d="m40.32499 16.06529c0.08656 0.184002 0.13523 0.207923 0.288587 0.135781 0.421675-0.198362 0.462255-0.151907 1.524829 2.166606l0.97602 2.134508-0.22866 0.210562c-0.174552 0.166378-0.211092 0.26784-0.154295 0.42839l0.07077 0.210155 1.349352-0.634753 1.349351-0.634753-0.120371-0.196187c-0.0947-0.161445-0.181264-0.186269-0.4063-0.12722-0.152425 0.03425-0.330557 0.03377-0.39774-0.0095-0.06361-0.03562-0.325063-0.511884-0.581128-1.056224l-0.461638-0.981345 0.505101-0.200153c0.795981-0.318257 1.035422-0.18745 1.685095 0.855254 0.507209 0.819458 0.759711 1.037758 1.188573 1.013918 0.459081-0.01933 1.158115-0.404345 1.290739-0.71954 0.120445-0.281379 0.108787-0.744062-0.03548-1.050733-0.09016-0.191668-0.138836-0.215589-0.299864-0.13984-0.153337 0.07213-0.173638 0.128494-0.0979 0.2895 0.129836 0.276004 0.100483 0.551985-0.07587 0.634932-0.199337 0.09377-0.247582 0.05093-0.652898-0.591747-0.500446-0.785188-0.772799-0.966059-1.473128-1.001782l-0.579474-0.01767 0.250755-0.183503c0.377938-0.271423 0.733355-0.710149 0.832161-1.03753 0.12723-0.40629-0.118902-1.048939-0.499477-1.300624-0.653376-0.41362-1.224753-0.29465-3.554537 0.763858l-1.800779 0.809659zm3.678617-1.19676c0.330533 0.125413 0.382382 0.175927 0.591561 0.620599 0.194754 0.414005 0.218213 0.543419 0.144649 0.765292-0.106027 0.312048-0.512834 0.68132-1.026506 0.922958l-0.352674 0.165904-0.414753-0.881678c-0.375081-0.797343-0.40661-0.904234-0.329492-1.118414 0.07309-0.202925 0.154271-0.269202 0.559703-0.422469 0.39776-0.14966 0.523124-0.161819 0.827512-0.05219z" stroke-width=".0084727"/>
    <g transform="translate(-.07015825 .12862346)">
     <path d="m49.173524 11.349967 0.76538-0.21406 0.298662-0.782311 0.366859-0.101721 0.675665 0.514852 0.724291-0.208037-1.282615-1.0863389-0.962012 0.2800088z" stroke-width="0" sodipodi:nodetypes="ccccccccc"/>
     <path d="m50.176327 11.8014c-0.02609 0.06807-0.173467 1.218206-0.314943 2.559413-0.295089 2.703079-0.373461 3.108656-0.630285 3.333021-0.108067 0.08938-0.152013 0.223374-0.124295 0.329974 0.04051 0.155798 0.08794 0.16973 0.430177 0.07198 0.213195-0.05544 0.604658-0.166021 0.875257-0.236389 0.457059-0.127639 0.485602-0.152544 0.440823-0.324741-0.03624-0.139399-0.118926-0.187936-0.330639-0.194162-0.361784-0.01098-0.460356-0.221714-0.409221-0.900352l0.0385-0.491515 0.969398-0.278341 0.969397-0.278351 0.327867 0.553815c0.354918 0.590555 0.377891 0.847215 0.09909 0.919716-0.262402 0.06823-0.386545 0.196817-0.343899 0.360816 0.03625 0.139401 0.114311 0.13661 0.778516-0.03611 0.412134-0.09839 1.043529-0.262582 1.420729-0.360671 0.625339-0.153832 0.670261-0.183079 0.654351-0.345248-0.01343-0.11907-0.08395-0.188277-0.22797-0.203351-0.117262-0.01329-0.292581-0.08149-0.406238-0.14824-0.107582-0.07707-0.867444-1.11386-1.696688-2.316443-0.827104-1.194387-1.547766-2.2151-1.59336-2.255769-0.11612-0.109878-0.86018 0.09237-0.9266 0.240956zm0.920136 2.124431c0.309 0.514952 0.603073 0.972501 0.632271 1.017436 0.05409 0.07348-0.11988 0.144981-0.726676 0.302776-0.598601 0.155662-0.793594 0.180113-0.790322 0.09171 0.08098-1.001556 0.222778-2.307832 0.263779-2.318493 0.02459-0.0064 0.305885 0.401951 0.620948 0.906571z" stroke="#000" stroke-width=".0084727"/>
     <circle transform="rotate(-14.576597)" cx="45.996849" cy="31.190407" r=".65481037" fill-rule="evenodd" stroke-width="0" style="paint-order:fill markers stroke"/>
    </g>
    <path d="m55.101201 10.790523c-0.0216 0.321905 0.05562 0.420309 0.318784 0.400496 0.509576-0.03672 0.543635 0.06056 0.95455 2.431458 0.40368 2.329156 0.400703 2.51025-0.03344 2.585493-0.200361 0.03473-0.351526 0.353291-0.233651 0.487644 0.02396 0.03884 0.495774-0.01713 1.04676-0.112621l0.993437-0.172179-0.03617-0.208705c-0.02894-0.166963-0.09602-0.206932-0.376219-0.23576-0.18255-0.01135-0.375223-0.08115-0.413286-0.151945-0.03806-0.07079-0.219369-0.968062-0.398783-2.003243l-0.325549-1.878351 2.209793 2.033326 2.209786 2.033326 0.325585-0.05642 0.325576-0.05642-0.454322-2.621344c-0.25031-1.444244-0.439402-2.684123-0.427387-2.763595 0.01202-0.07947 0.169975-0.210039 0.338049-0.282164 0.245774-0.119984 0.303882-0.181653 0.276392-0.3402693-0.03473-0.200357-0.043-0.1989225-1.036515-0.02673l-1.00179 0.1736265 0.04196 0.242098c0.03617 0.208706 0.07532 0.236316 0.284059 0.200138 0.484197-0.08392 0.52661 0.01192 0.837689 1.806788l0.283589 1.636252-0.469387-0.425988c-0.255005-0.230971-1.113969-1.01939-1.908372-1.733007l-1.440432-1.315368-0.944803 0.155124c-0.517584 0.08971-0.940452 0.180197-0.945911 0.198336z" stroke-width=".0084727"/>
    <path d="m72.513145 10.652437c-0.08274 0.29346-0.200571 0.771955-0.257049 1.06962-0.09922 0.522928-0.09511 0.548456 0.106291 0.580731 0.175065 0.02806 0.229522-0.02121 0.391848-0.401421 0.314371-0.753713 0.722919-1.052983 1.459416-1.084158l0.290797-0.01133-0.442657 2.333061c-0.489977 2.582456-0.461764 2.528952-1.066579 2.531495-0.271752 0.0062-0.331909 0.03799-0.333127 0.18701-0.0073 0.1812 0.01 0.184016 1.61206 0.440735 1.514332 0.242698 1.620911 0.251425 1.674636 0.110886 0.06705-0.163335-0.05886-0.307858-0.330198-0.351349-0.09628-0.01544-0.232886-0.103643-0.296402-0.196716-0.106868-0.149765-0.06944-0.442191 0.316746-2.477586l0.436554-2.300883 0.323467 0.101583c0.614976 0.181465 0.982746 0.762651 0.947357 1.519627-0.01159 0.346309 0.01434 0.400189 0.198087 0.429652 0.210079 0.03366 0.21162 0.02557 0.368827-0.803015 0.087-0.458567 0.152328-0.945478 0.152014-1.086453l-0.0052-0.257815-2.696039-0.432086-2.688831-0.42258z" stroke-width=".00851838"/>
    <path d="m84.807382 10.842388c0.395064-0.456788 0.936867-0.574197 0.619982-1.0305409-0.445248-0.2600277-0.914653 0.5175549-1.085453-0.3638693 2.267244-1.3351737 2.600111 2.0797452 0.465471 1.3944102z" stroke-width="0" sodipodi:nodetypes="cccc"/>
    <path d="m82.13237 11.624854c-1.552202-0.238189-3.028665 0.745663-3.556127 2.38616-0.337119 1.052106-0.197702 2.03248 0.410668 2.898155 0.209231 0.301601 0.360907 0.407754 1.022717 0.742885 0.692956 0.350901 0.837147 0.39458 1.274354 0.381185 0.597176-8.59e-4 1.422228-0.29719 1.841611-0.642427 1.089613-0.896052 1.624366-2.435032 1.263889-3.693652-0.2301-0.801296-0.590808-1.248082-1.380938-1.677539-0.358055-0.200884-0.747457-0.378501-0.876171-0.394771zm1.07079 1.266139c0.16526 0.504333 0.08136 0.882501-0.439766 2.046858-0.461947 1.04759-1.044216 1.946207-1.463506 2.271925-0.689641 0.531206-1.717394 0.01076-1.693398-0.867323 0.01037-0.50344 0.45335-1.648678 1.00069-2.594331 0.594627-1.039099 0.857627-1.326569 1.350227-1.48799 0.328408-0.10761 0.441551-0.09922 0.752993 0.05848 0.31144 0.157709 0.385158 0.243947 0.492773 0.572357z" stroke="#000" stroke-width=".00872739"/>
    <path d="m81.597308 10.877848 0.759097 0.306483 0.735494-0.450594 0.363292 0.147622 0.227667 0.844858 0.721784 0.285568-0.363661-1.692731-0.961002-0.3762837z" stroke-width="0" sodipodi:nodetypes="ccccccccc"/>
    <path d="m92.851388 15.847365c-1.321106-0.473257-2.748071-0.0016-3.733472 1.209737-0.781108 0.960212-1.094398 1.994134-0.888043 2.947539 0.187452 0.901202 0.334178 1.1433 1.076943 1.784345l0.682287 0.579577-0.1263 0.351397c-0.217413 0.58413-0.121123 0.99386 0.299891 1.336343 0.413628 0.336478 0.805712 0.397672 1.403468 0.221134 0.327981-0.101421 0.371415-0.139728 0.347515-0.30646-0.0179-0.174126-0.06222-0.210181-0.388712-0.291654-0.430395-0.104635-0.585008-0.291779-0.568135-0.719919l0.0025-0.304819 0.623545-0.05737c2.400421-0.21982 4.102176-3.020935 3.108093-5.118371-0.29384-0.619528-1.172306-1.395509-1.839563-1.631453zm1.017582 1.404658c0.249527 0.58348-0.106085 1.33749-1.327195 2.823508-0.475988 0.57017-0.960841 1.120857-1.092574 1.222354l-0.231934 0.17955 0.06809-0.32511c0.07922-0.414247-0.0411-0.794425-0.360968-1.140547-0.29771-0.328099-0.874945-0.47854-1.184023-0.324923-0.38531 0.202069-0.328859 0.02706 0.198511-0.636331 1.437912-1.812886 1.979059-2.342327 2.578198-2.505468 0.526147-0.148872 1.112531 0.156298 1.351911 0.706977zm-3.183027 3.731821c-0.03954 0.471072-0.302532 0.809465-0.578694 0.756652-0.111288-0.02916-0.340765-0.15446-0.510647-0.292655-0.67215-0.546777-0.271107-1.582958 0.524084-1.353407 0.404979 0.120782 0.606169 0.431738 0.565259 0.889414z" stroke-width=".00952154"/>
    <path d="m96.619066 18.658739c-0.129002 0.184578-0.120453 0.23282 0.05703 0.356862 0.113584 0.07939 0.2045 0.206331 0.217327 0.278692 0.0029 0.08657-0.445703 0.819151-1.081476 1.759065-1.224758 1.827994-1.336656 2.109063-1.211911 2.88309 0.09695 0.617237 0.485426 1.089511 1.317402 1.607578 0.819912 0.520207 1.37273 0.621262 1.976377 0.37744 0.618532-0.265119 0.953174-0.622978 2.049696-2.191895 1.066739-1.526321 1.169569-1.612964 1.538719-1.354959 0.142 0.09924 0.19519 0.08359 0.31924-0.09389l0.15381-0.220074-0.7745-0.509604c-0.78159-0.514556-0.78159-0.514556-0.90563-0.337078-0.0993 0.141984-0.0864 0.214349 0.0599 0.337701 0.0966 0.08863 0.16764 0.243961 0.15565 0.35182-0.0147 0.127022-0.42235 0.740372-1.151019 1.752733-1.246817 1.738607-1.472302 1.940288-2.088932 1.900298-0.434267-0.02877-1.122886-0.510046-1.294169-0.915096-0.258709-0.582349-0.190009-0.756241 1.073751-2.60981 1.212007-1.794639 1.265893-1.841512 1.636429-1.645945 0.159009 0.09 0.231375 0.07717 0.330602-0.06481l0.124037-0.177478-1.175637-0.842792-1.177779-0.854841z" stroke-width=".00866119"/>
    <path d="m110.20023 30.491249c-0.56391-0.353393-1.71887-0.437681-2.43299-0.191405-0.74668 0.262304-1.69475 1.063758-2.06959 1.738657-0.31824 0.591838-0.45825 1.517239-0.31276 2.166674 0.10008 0.44571 0.17085 0.570347 0.67674 1.168766 0.63663 0.753081 0.97052 0.943495 1.71707 0.981066 0.64626 0.04166 1.51806-0.22265 1.3646-0.404191-0.0285-0.03364-0.0708-0.124637-0.10176-0.202203-0.0356-0.0967-0.14729-0.106056-0.39136-0.02658-0.82115 0.256063-1.54802 0.132673-1.95158-0.344714-0.68777-0.813592-0.49195-1.659337 0.64029-2.720252 1.12657-1.06761 2.10083-1.510776 2.84523-1.298456 0.89691 0.256338 1.13424 1.300828 0.54587 2.432298-0.19457 0.383534-0.21737 0.506578-0.10936 0.63433 0.12505 0.147924 0.1509 0.1376 0.68881-0.317124 0.30258-0.255783 0.69569-0.622668 0.87364-0.807662 0.27522-0.301781 0.29282-0.362788 0.17912-0.497285-0.0796-0.09414-0.1959-0.122627-0.29932-0.08131-0.10339 0.04131-0.21974 0.01282-0.29931-0.08131-0.074-0.08741-0.21801-0.380625-0.32594-0.658316-0.23651-0.607085-0.69019-1.157398-1.23704-1.490614z" stroke-width=".00880449"/>
    <path d="m105.34992 25.161443c-1.3806-0.8218-3.15852-0.455588-4.28856 0.89769-0.72362 0.868347-0.96778 1.851612-0.72317 2.906143 0.0826 0.366355 0.18572 0.525254 0.68469 1.097151 0.52246 0.598817 0.64243 0.695595 1.06221 0.850744 0.56667 0.228447 1.46287 0.264166 1.99314 0.09777 1.37735-0.431463 2.47531-1.685667 2.61666-3.017675 0.0894-0.848256-0.0811-1.410451-0.6656-2.121067-0.26244-0.327972-0.56355-0.645916-0.67936-0.710756zm0.52941 1.611841c-0.0369 0.541729-0.26165 0.86816-1.20287 1.772316-0.84025 0.816175-1.73745 1.444836-2.26015 1.592744-0.85796 0.239006-1.63283-0.649118-1.27297-1.472653 0.20311-0.473453 1.06288-1.389486 1.94501-2.07617 0.96285-0.757136 1.32262-0.928812 1.85175-0.892782 0.35276 0.02403 0.45684 0.07541 0.69165 0.344541 0.23481 0.269137 0.27162 0.379222 0.2476 0.731985z" stroke="#000" stroke-width=".00892914"/>
    <path d="m105.27276 24.479281 0.54019 0.582943 0.83232-0.09189 0.25814 0.279816-0.14914 0.83627 0.51605 0.54915 0.38008-1.637306-0.68872-0.727698z" stroke-width="0" sodipodi:nodetypes="ccccccccc"/>
    <path d="m108.24249 25.52591 0.11693 0.736662 1.89427 0.385869v-1.122531z" stroke-width="0"/>
   </g>
   <g fill-opacity="0" stroke="#fc0704" stroke-width=".238125">
    <path d="m16.256712 39.161417c0.132441 0.191505 0.322672 0.179604 0.503519-0.04105 0.288847-0.349341 0.431984-0.292186 2.330946 1.002979 1.905868 1.299876 2.002225 1.395945 1.789013 1.827228-0.108955 0.219095-0.102693 0.284072 0.03541 0.378268 0.151918 0.103606 0.17295 0.08761 0.431985-0.292188 0.146-0.214064 0.402841-0.605469 0.57239-0.854061 0.285098-0.432837 0.292318-0.458265 0.133178-0.536452-0.119904-0.06155-0.222245-0.03017-0.369803 0.112009-0.117107 0.112362-0.254926 0.210596-0.301386 0.21938-0.104537 0.01977-1.092316-0.623591-3.113058-2.022051l-1.065617-0.736905 2.415436 0.686257c1.324328 0.387252 2.55857 0.743413 2.738745 0.805592 0.450439 0.155453 0.559683 0.128789 0.692511-0.154967 0.06406-0.138423 0.109273-0.24923 0.113984-0.256134-0.0069-0.0047-0.82386-1.017195-1.807785-2.244731l-1.798683-2.228407 1.989049 1.326258c1.247663 0.840843 2.018549 1.386844 2.06844 1.491704 0.0477 0.09324 0.02978 0.253015-0.0506 0.400541-0.09922 0.175149-0.100175 0.265555 0.0077 0.359429 0.137788 0.124326 0.154114 0.115225 0.592114-0.526967 0.256515-0.361275 0.633291-0.913698 0.849936-1.231341 0.383679-0.547721 0.386196-0.566238 0.227374-0.674562-0.131203-0.08949-0.193989-0.0716-0.330251 0.09852-0.328724 0.392964-0.421006 0.350261-2.382115-0.987293-1.905868-1.299876-2.052754-1.440529-1.821982-1.778889 0.150712-0.220971 0.131906-0.415911-0.03666-0.480288-0.131519-0.05936-0.206556 0.021-0.886629 0.973616-0.720265 1.026377-0.729685 1.040188-0.624864 1.212854 0.06622 0.09575 0.619853 0.797113 1.240023 1.564087 0.620173 0.766977 1.141792 1.426267 1.169094 1.475241 0.01569 0.05117-0.856007-0.169013-1.944601-0.486539l-1.980686-0.581975-0.736587 1.035481c-0.616652 0.874462-0.715874 1.049609-0.649653 1.145361z"/>
    <path d="m22.754166 26.822135c0.100488 1.167345-0.466953 1.428925-1.281575 1.513086l-0.07441 0.768946c1.746203-0.05936 2.104335-1.104656 2.108399-2.24069z" sodipodi:nodetypes="ccccc"/>
    <path d="m23.229072 29.602245c0.01602 0.07112 0.531044 1.110006 1.156899 2.304641 1.25307 2.413198 1.412708 2.794184 1.323364 3.123299-0.04038 0.134303-0.0027 0.270179 0.07951 0.343526 0.120096 0.1072 0.167286 0.0925 0.397915-0.178598 0.14669-0.164338 0.41117-0.473404 0.59736-0.681994 0.309613-0.359629 0.319567-0.396174 0.186823-0.514663-0.107455-0.09591-0.203171-0.09047-0.38282 0.02169-0.307174 0.191448-0.506046 0.07071-0.839744-0.52242l-0.240446-0.430413 0.652446-0.769104 0.65244-0.76911 0.579911 0.279128c0.622794 0.294703 0.784211 0.495567 0.592383 0.710477-0.18055 0.202271-0.212577 0.378111-0.08616 0.490952 0.107454 0.09591 0.170871 0.05031 0.627884-0.461686 0.288442-0.31038 0.72288-0.797086 0.982416-1.087849 0.435137-0.474726 0.456309-0.523974 0.353158-0.650115-0.07719-0.09164-0.174249-0.110148-0.302469-0.04284-0.104949 0.05396-0.288678 0.09439-0.420273 0.10186-0.132264-0.0045-1.339465-0.446059-2.696332-0.987138-1.350541-0.535442-2.516208-0.985362-2.576702-0.993929-0.157557-0.02706-0.66466 0.553775-0.637555 0.714261zm1.943605 1.257878c0.542662 0.257242 1.041077 0.474991 1.090287 0.4962 0.08576 0.03116-0.01938 0.187123-0.436898 0.654866-0.411872 0.461426-0.560594 0.589885-0.606884 0.514497-0.487901-0.878421-1.094114-2.044171-1.065905-2.075773 0.01693-0.01897 0.47742 0.164929 1.0194 0.41021z"/>
    <circle cx="28.741497" cy="33.792889" r=".65481037" stroke-linecap="round" stroke-linejoin="round" style="paint-order:fill markers stroke"/>
    <path d="m26.896714 26.063067c0.198064 0.244319 0.530669 0.629613 0.747115 0.856388 0.380242 0.398388 0.403868 0.410975 0.54489 0.276376 0.122581-0.116998 0.112275-0.18915-0.113075-0.547974-0.45099-0.705662-0.469349-1.203489-0.0782-1.78765l0.155178-0.230099 1.696467 1.777423c1.877813 1.967424 1.84914 1.912804 1.508675 2.378311-0.148767 0.212272-0.156296 0.278015-0.03261 0.370789 0.147087 0.117289 0.159363 0.105572 1.280964-0.964943 1.060322-1.012028 1.128002-1.088375 1.041111-1.216228-0.09833-0.152109-0.290275-0.144597-0.480274 0.03675-0.06742 0.06435-0.218412 0.114766-0.332073 0.106123-0.185535-0.01032-0.408388-0.219263-1.888409-1.769912l-1.673067-1.752907 0.268005-0.185518c0.499792-0.359899 1.193173-0.283816 1.804911 0.209858 0.282472 0.222318 0.342087 0.235693 0.470795 0.112848 0.147097-0.140397 0.141228-0.146546-0.461291-0.777818-0.333443-0.349356-0.702825-0.699548-0.820662-0.786191l-0.218123-0.154898-1.887747 1.801765-1.875751 1.802065z"/>
    <path d="m34.581761 19.980437c0.162583 0.269236 0.439042 0.696609 0.622245 0.950995 0.321842 0.446895 0.343513 0.462611 0.501705 0.348684 0.137506-0.09903 0.13722-0.171912-0.03664-0.558317-0.349661-0.760978-0.299384-1.2566 0.168383-1.78142l0.185347-0.206572 1.435915 1.993835c1.589409 2.206971 1.568521 2.148927 1.167274 2.56319-0.176545 0.189796-0.193044 0.253879-0.08329 0.362781 0.129561 0.136402 0.143331 0.126485 1.401494-0.779615 1.189424-0.856596 1.26696-0.92291 1.198477-1.061497-0.07648-0.164187-0.267632-0.183143-0.480765-0.02965-0.07563 0.05447-0.232119 0.08364-0.343512 0.05945-0.182353-0.03574-0.374355-0.273342-1.627067-2.012792l-1.416109-1.966335 0.290973-0.146898c0.544536-0.287748 1.220867-0.117033 1.758902 0.456077 0.249214 0.259052 0.306424 0.280498 0.450802 0.17652 0.165007-0.118834 0.160039-0.125732-0.349942-0.833865-0.282231-0.391892-0.599944-0.789555-0.704747-0.89158l-0.194748-0.183422-2.117593 1.52504-2.105751 1.526988z"/>
    <path d="m40.32499 16.06529c0.08656 0.184002 0.13523 0.207923 0.288587 0.135781 0.421675-0.198362 0.462255-0.151907 1.524829 2.166606l0.97602 2.134508-0.22866 0.210562c-0.174552 0.166378-0.211092 0.26784-0.154295 0.42839l0.07077 0.210155 1.349352-0.634753 1.349351-0.634753-0.120371-0.196187c-0.0947-0.161445-0.181264-0.186269-0.4063-0.12722-0.152425 0.03425-0.330557 0.03377-0.39774-0.0095-0.06361-0.03562-0.325063-0.511884-0.581128-1.056224l-0.461638-0.981345 0.505101-0.200153c0.795981-0.318257 1.035422-0.18745 1.685095 0.855254 0.507209 0.819458 0.759711 1.037758 1.188573 1.013918 0.459081-0.01933 1.158115-0.404345 1.290739-0.71954 0.120445-0.281379 0.108787-0.744062-0.03548-1.050733-0.09016-0.191668-0.138836-0.215589-0.299864-0.13984-0.153337 0.07213-0.173638 0.128494-0.0979 0.2895 0.129836 0.276004 0.100483 0.551985-0.07587 0.634932-0.199337 0.09377-0.247582 0.05093-0.652898-0.591747-0.500446-0.785188-0.772799-0.966059-1.473128-1.001782l-0.579474-0.01767 0.250755-0.183503c0.377938-0.271423 0.733355-0.710149 0.832161-1.03753 0.12723-0.40629-0.118902-1.048939-0.499477-1.300624-0.653376-0.41362-1.224753-0.29465-3.554537 0.763858l-1.800779 0.809659zm3.678617-1.19676c0.330533 0.125413 0.382382 0.175927 0.591561 0.620599 0.194754 0.414005 0.218213 0.543419 0.144649 0.765292-0.106027 0.312048-0.512834 0.68132-1.026506 0.922958l-0.352674 0.165904-0.414753-0.881678c-0.375081-0.797343-0.40661-0.904234-0.329492-1.118414 0.07309-0.202925 0.154271-0.269202 0.559703-0.422469 0.39776-0.14966 0.523124-0.161819 0.827512-0.05219z"/>
    <g transform="translate(-.07015825 .12862346)">
     <path d="m49.173524 11.349967 0.76538-0.21406 0.298662-0.782311 0.366859-0.101721 0.675665 0.514852 0.724291-0.208037-1.282615-1.0863389-0.962012 0.2800088z" sodipodi:nodetypes="ccccccccc"/>
     <path d="m50.176327 11.8014c-0.02609 0.06807-0.173467 1.218206-0.314943 2.559413-0.295089 2.703079-0.373461 3.108656-0.630285 3.333021-0.108067 0.08938-0.152013 0.223374-0.124295 0.329974 0.04051 0.155798 0.08794 0.16973 0.430177 0.07198 0.213195-0.05544 0.604658-0.166021 0.875257-0.236389 0.457059-0.127639 0.485602-0.152544 0.440823-0.324741-0.03624-0.139399-0.118926-0.187936-0.330639-0.194162-0.361784-0.01098-0.460356-0.221714-0.409221-0.900352l0.0385-0.491515 0.969398-0.278341 0.969397-0.278351 0.327867 0.553815c0.354918 0.590555 0.377891 0.847215 0.09909 0.919716-0.262402 0.06823-0.386545 0.196817-0.343899 0.360816 0.03625 0.139401 0.114311 0.13661 0.778516-0.03611 0.412134-0.09839 1.043529-0.262582 1.420729-0.360671 0.625339-0.153832 0.670261-0.183079 0.654351-0.345248-0.01343-0.11907-0.08395-0.188277-0.22797-0.203351-0.117262-0.01329-0.292581-0.08149-0.406238-0.14824-0.107582-0.07707-0.867444-1.11386-1.696688-2.316443-0.827104-1.194387-1.547766-2.2151-1.59336-2.255769-0.11612-0.109878-0.86018 0.09237-0.9266 0.240956zm0.920136 2.124431c0.309 0.514952 0.603073 0.972501 0.632271 1.017436 0.05409 0.07348-0.11988 0.144981-0.726676 0.302776-0.598601 0.155662-0.793594 0.180113-0.790322 0.09171 0.08098-1.001556 0.222778-2.307832 0.263779-2.318493 0.02459-0.0064 0.305885 0.401951 0.620948 0.906571z"/>
     <circle transform="rotate(-14.576597)" cx="45.996849" cy="31.190407" r=".65481037" stroke-linecap="round" stroke-linejoin="round" style="paint-order:fill markers stroke"/>
    </g>
    <path d="m55.101201 10.790523c-0.0216 0.321905 0.05562 0.420309 0.318784 0.400496 0.509576-0.03672 0.543635 0.06056 0.95455 2.431458 0.40368 2.329156 0.400703 2.51025-0.03344 2.585493-0.200361 0.03473-0.351526 0.353291-0.233651 0.487644 0.02396 0.03884 0.495774-0.01713 1.04676-0.112621l0.993437-0.172179-0.03617-0.208705c-0.02894-0.166963-0.09602-0.206932-0.376219-0.23576-0.18255-0.01135-0.375223-0.08115-0.413286-0.151945-0.03806-0.07079-0.219369-0.968062-0.398783-2.003243l-0.325549-1.878351 2.209793 2.033326 2.209786 2.033326 0.325585-0.05642 0.325576-0.05642-0.454322-2.621344c-0.25031-1.444244-0.439402-2.684123-0.427387-2.763595 0.01202-0.07947 0.169975-0.210039 0.338049-0.282164 0.245774-0.119984 0.303882-0.181653 0.276392-0.3402693-0.03473-0.200357-0.043-0.1989225-1.036515-0.02673l-1.00179 0.1736263 0.04196 0.242098c0.03617 0.208706 0.07532 0.236316 0.284059 0.200138 0.484197-0.08392 0.52661 0.01192 0.837689 1.806788l0.283589 1.636252-0.469387-0.425988c-0.255005-0.230971-1.113969-1.01939-1.908372-1.733007l-1.440432-1.315368-0.944803 0.155124c-0.517584 0.08971-0.940452 0.180197-0.945911 0.198336z"/>
    <path d="m72.513145 10.652437c-0.08274 0.29346-0.200571 0.771955-0.257049 1.06962-0.09922 0.522928-0.09511 0.548456 0.106291 0.580731 0.175065 0.02806 0.229522-0.02121 0.391848-0.401421 0.314371-0.753713 0.722919-1.052983 1.459416-1.084158l0.290797-0.01133-0.442657 2.333061c-0.489977 2.582456-0.461764 2.528952-1.066579 2.531495-0.271752 0.0062-0.331909 0.03799-0.333127 0.18701-0.0073 0.1812 0.01 0.184016 1.61206 0.440735 1.514332 0.242698 1.620911 0.251425 1.674636 0.110886 0.06705-0.163335-0.05886-0.307858-0.330198-0.351349-0.09628-0.01544-0.232886-0.103643-0.296402-0.196716-0.106868-0.149765-0.06944-0.442191 0.316746-2.477586l0.436554-2.300883 0.323467 0.101583c0.614976 0.181465 0.982746 0.762651 0.947357 1.519627-0.01159 0.346309 0.01434 0.400189 0.198087 0.429652 0.210079 0.03366 0.21162 0.02557 0.368827-0.803015 0.087-0.458567 0.152328-0.945478 0.152014-1.086453l-0.0052-0.257815-2.696039-0.432086-2.688831-0.42258z"/>
    <path d="m84.807382 10.842388c0.395064-0.456788 0.936867-0.574197 0.619982-1.0305409-0.445248-0.2600277-0.914653 0.5175549-1.085453-0.3638693 2.267244-1.3351737 2.600111 2.0797452 0.465471 1.3944102z" sodipodi:nodetypes="cccc"/>
    <path d="m82.13237 11.624854c-1.552202-0.238189-3.028665 0.745663-3.556127 2.38616-0.337119 1.052106-0.197702 2.03248 0.410668 2.898155 0.209231 0.301601 0.360907 0.407754 1.022717 0.742885 0.692956 0.350901 0.837147 0.39458 1.274354 0.381185 0.597176-8.59e-4 1.422228-0.29719 1.841611-0.642427 1.089613-0.896052 1.624366-2.435032 1.263889-3.693652-0.2301-0.801296-0.590808-1.248082-1.380938-1.677539-0.358055-0.200884-0.747457-0.378501-0.876171-0.394771zm1.07079 1.266139c0.16526 0.504333 0.08136 0.882501-0.439766 2.046858-0.461947 1.04759-1.044216 1.946207-1.463506 2.271925-0.689641 0.531206-1.717394 0.01076-1.693398-0.867323 0.01037-0.50344 0.45335-1.648678 1.00069-2.594331 0.594627-1.039099 0.857627-1.326569 1.350227-1.48799 0.328408-0.10761 0.441551-0.09922 0.752993 0.05848 0.31144 0.157709 0.385158 0.243947 0.492773 0.572357z"/>
    <path d="m81.597308 10.877848 0.759097 0.306483 0.735494-0.450594 0.363292 0.147622 0.227667 0.844858 0.721784 0.285568-0.363661-1.692731-0.961002-0.3762837z" sodipodi:nodetypes="ccccccccc"/>
    <path d="m92.851388 15.847365c-1.321106-0.473257-2.748071-0.0016-3.733472 1.209737-0.781108 0.960212-1.094398 1.994134-0.888043 2.947539 0.187452 0.901202 0.334178 1.1433 1.076943 1.784345l0.682287 0.579577-0.1263 0.351397c-0.217413 0.58413-0.121123 0.99386 0.299891 1.336343 0.413628 0.336478 0.805712 0.397672 1.403468 0.221134 0.327981-0.101421 0.371415-0.139728 0.347515-0.30646-0.0179-0.174126-0.06222-0.210181-0.388712-0.291654-0.430395-0.104635-0.585008-0.291779-0.568135-0.719919l0.0025-0.304819 0.623545-0.05737c2.400421-0.21982 4.102176-3.020935 3.108093-5.118371-0.29384-0.619528-1.172306-1.395509-1.839563-1.631453zm1.017582 1.404658c0.249527 0.58348-0.106085 1.33749-1.327195 2.823508-0.475988 0.57017-0.960841 1.120857-1.092574 1.222354l-0.231934 0.17955 0.06809-0.32511c0.07922-0.414247-0.0411-0.794425-0.360968-1.140547-0.29771-0.328099-0.874945-0.47854-1.184023-0.324923-0.38531 0.202069-0.328859 0.02706 0.198511-0.636331 1.437912-1.812886 1.979059-2.342327 2.578198-2.505468 0.526147-0.148872 1.112531 0.156298 1.351911 0.706977zm-3.183027 3.731821c-0.03954 0.471072-0.302532 0.809465-0.578694 0.756652-0.111288-0.02916-0.340765-0.15446-0.510647-0.292655-0.67215-0.546777-0.271107-1.582958 0.524084-1.353407 0.404979 0.120782 0.606169 0.431738 0.565259 0.889414z"/>
    <path d="m96.619066 18.658739c-0.129002 0.184578-0.120453 0.23282 0.05703 0.356862 0.113584 0.07939 0.2045 0.206331 0.217327 0.278692 0.0029 0.08657-0.445703 0.819151-1.081476 1.759065-1.224758 1.827994-1.336656 2.109063-1.211911 2.88309 0.09695 0.617237 0.485426 1.089511 1.317402 1.607578 0.819912 0.520207 1.37273 0.621262 1.976377 0.37744 0.618532-0.265119 0.953174-0.622978 2.049696-2.191895 1.066739-1.526321 1.169569-1.612964 1.538719-1.354959 0.142 0.09924 0.19519 0.08359 0.31924-0.09389l0.15381-0.220074-0.7745-0.509604c-0.78159-0.514556-0.78159-0.514556-0.90563-0.337078-0.0993 0.141984-0.0864 0.214349 0.0599 0.337701 0.0966 0.08863 0.16764 0.243961 0.15565 0.35182-0.0147 0.127022-0.42235 0.740372-1.151019 1.752733-1.246817 1.738607-1.472302 1.940288-2.088932 1.900298-0.434267-0.02877-1.122886-0.510046-1.294169-0.915096-0.258709-0.582349-0.190009-0.756241 1.073751-2.60981 1.212007-1.794639 1.265893-1.841512 1.636429-1.645945 0.159009 0.09 0.231375 0.07717 0.330602-0.06481l0.124037-0.177478-1.175637-0.842792-1.177779-0.854841z"/>
    <path d="m110.20023 30.491249c-0.56391-0.353393-1.71887-0.437681-2.43299-0.191405-0.74668 0.262304-1.69475 1.063758-2.06959 1.738657-0.31824 0.591838-0.45825 1.517239-0.31276 2.166674 0.10008 0.44571 0.17085 0.570347 0.67674 1.168766 0.63663 0.753081 0.97052 0.943495 1.71707 0.981066 0.64626 0.04166 1.51806-0.22265 1.3646-0.404191-0.0285-0.03364-0.0708-0.124637-0.10176-0.202203-0.0356-0.0967-0.14729-0.106056-0.39136-0.02658-0.82115 0.256063-1.54802 0.132673-1.95158-0.344714-0.68777-0.813592-0.49195-1.659337 0.64029-2.720252 1.12657-1.06761 2.10083-1.510776 2.84523-1.298456 0.89691 0.256338 1.13424 1.300828 0.54587 2.432298-0.19457 0.383534-0.21737 0.506578-0.10936 0.63433 0.12505 0.147924 0.1509 0.1376 0.68881-0.317124 0.30258-0.255783 0.69569-0.622668 0.87364-0.807662 0.27522-0.301781 0.29282-0.362788 0.17912-0.497285-0.0796-0.09414-0.1959-0.122627-0.29932-0.08131-0.10339 0.04131-0.21974 0.01282-0.29931-0.08131-0.074-0.08741-0.21801-0.380625-0.32594-0.658316-0.23651-0.607085-0.69019-1.157398-1.23704-1.490614z"/>
    <path d="m105.34992 25.161443c-1.3806-0.8218-3.15852-0.455588-4.28856 0.89769-0.72362 0.868347-0.96778 1.851612-0.72317 2.906143 0.0826 0.366355 0.18572 0.525254 0.68469 1.097151 0.52246 0.598817 0.64243 0.695595 1.06221 0.850744 0.56667 0.228447 1.46287 0.264166 1.99314 0.09777 1.37735-0.431463 2.47531-1.685667 2.61666-3.017675 0.0894-0.848256-0.0811-1.410451-0.6656-2.121067-0.26244-0.327972-0.56355-0.645916-0.67936-0.710756zm0.52941 1.611841c-0.0369 0.541729-0.26165 0.86816-1.20287 1.772316-0.84025 0.816175-1.73745 1.444836-2.26015 1.592744-0.85796 0.239006-1.63283-0.649118-1.27297-1.472653 0.20311-0.473453 1.06288-1.389486 1.94501-2.07617 0.96285-0.757136 1.32262-0.928812 1.85175-0.892782 0.35276 0.02403 0.45684 0.07541 0.69165 0.344541 0.23481 0.269137 0.27162 0.379222 0.2476 0.731985z"/>
    <path d="m105.27276 24.479281 0.54019 0.582943 0.83232-0.09189 0.25814 0.279816-0.14914 0.83627 0.51605 0.54915 0.38008-1.637306-0.68872-0.727698z" sodipodi:nodetypes="ccccccccc"/>
    <path d="m108.24249 25.52591 0.11693 0.736662 1.89427 0.385869v-1.122531z"/>
   </g>
  </g>
  <g fill="#fcec34">
   <path d="m37.800709 116.00349c0.08997 0.19441 0.184528 0.23647 0.424572 0.22195 0.393029-0.0316 0.524395 0.09 3.149979 2.72648l1.99115 2.00752 0.450658-0.20855 0.450654-0.20855-0.249348-3.13542c-0.139785-1.71628-0.228384-3.25238-0.197271-3.417 0.03112-0.16459 0.128828-0.37075 0.210335-0.47282 0.108014-0.11435 0.116703-0.25788 0.0472-0.40807l-0.106321-0.22975-0.941418 0.44634-0.950251 0.45043 0.102233 0.22091c0.07361 0.15906 0.15934 0.20522 0.300062 0.16155 0.114224-0.0314 0.314167-0.0166 0.434577 0.035 0.227912 0.0984 0.247044 0.18609 0.454509 2.25727 0.116804 1.17975 0.187163 2.16642 0.160654 2.17868-0.09243 0.032-2.957694-2.89057-3.0681-3.12916-0.08179-0.17671-0.04856-0.2672 0.152564-0.43539 0.196379-0.15524 0.225518-0.25456 0.147824-0.42243l-0.09814-0.21209-1.483867 0.66519-1.496778 0.66049z"/>
   <path d="m45.282065 112.59065c-0.0081 0.24618 0.159851 0.36044 0.430316 0.30132 0.436991-0.10972 0.546194 0.0841 1.384783 2.39752 0.847937 2.33915 0.872013 2.4861 0.442675 2.77796-0.201799 0.14119-0.240154 0.22327-0.167592 0.34291 0.08814 0.16265 0.151466 0.14942 1.553233-0.35872 1.418971-0.51437 1.4588-0.5387 1.422306-0.71992-0.0272-0.15553-0.09751-0.18844-0.324966-0.14489-0.536197 0.0776-0.584573-2e-3 -1.463687-2.42729-0.872881-2.40797-0.896967-2.55492-0.442675-2.77799 0.174366-0.0827 0.207264-0.15294 0.144908-0.32494l-0.07794-0.21501-1.454103 0.49798c-1.227408 0.42548-1.444771 0.52374-1.447245 0.65112z" inkscape:transform-center-x="-0.69453127" inkscape:transform-center-y="-0.42994793"/>
   <circle cx="54.575096" cy="117.62684" r=".66840494" fill-rule="evenodd" stroke-opacity="0" style="paint-order:fill markers stroke"/>
   <path d="m51.713262 109.66157 0.787252-0.15497 0.362123-0.76392 0.377246-0.0735 0.639574 0.57133 0.745267-0.15294-1.20553-1.19424-0.990302 0.20611z" stroke-opacity="0" sodipodi:nodetypes="ccccccccc"/>
   <path d="m49.746655 111.19952c0.06292 0.16902 0.15282 0.22892 0.355138 0.22221 0.150247 7e-3 0.318279 0.0463 0.368937 0.098 0.05934 0.0493 0.37868 1.12509 0.711142 2.39218 0.332467 1.2671 0.582426 2.36103 0.554953 2.43317-0.01876 0.0697-0.145824 0.18667-0.273296 0.26649-0.153496 0.0868-0.226197 0.19851-0.211677 0.32455l0.02178 0.1891 2.419522-0.60698c1.332387-0.33105 2.642873-0.6749 2.90736-0.76284l0.487848-0.15588-0.07499-0.46269c-0.04-0.25851-0.132847-0.75362-0.197863-1.1076l-0.120536-0.63626-0.243006 0.0637c-0.208291 0.0546-0.240288 0.10946-0.233289 0.52502-3.41e-4 0.52883-0.19071 1.00548-0.5202 1.30529-0.516854 0.46955-1.826906 0.85039-2.179783 0.6368-0.129195-0.0682-0.23038-0.34771-0.46037-1.22425l-0.298307-1.13691 0.412881-0.0527c0.554003-0.0805 0.908302 0.0678 1.194315 0.52149 0.188393 0.29378 0.280602 0.36235 0.436818 0.32136 0.190931-0.0501 0.188618-0.0589-0.184799-1.48208l-0.375729-1.43198-0.216967 0.057c-0.130183 0.0341-0.203315 0.10898-0.182816 0.18712 0.01821 0.0694 0.01443 0.30231-0.01359 0.51375-0.05559 0.45985-0.317919 0.73275-0.829967 0.86711l-0.347147 0.091-0.25732-0.98069c-0.138905-0.52939-0.234021-1.0332-0.206549-1.10533 0.108954-0.36254 1.419438-0.70638 2.097933-0.55989 0.460271 0.0926 0.894813 0.40528 1.138851 0.80505 0.164204 0.27229 0.229945 0.31072 0.438226 0.25606l0.234332-0.0614-0.212304-0.66785c-0.121668-0.35768-0.279318-0.81723-0.360047-1.01867l-0.139059-0.3531-2.86397 0.75146-2.86397 0.75145z"/>
   <path d="m58.08959 109.40138c-0.01022 0.35411-0.0083 0.92737 0.01128 1.27992 0.03439 0.61937 0.04586 0.64745 0.27444 0.63579 0.198719-0.0101 0.244698-0.0793 0.318138-0.55138 0.137465-0.93393 0.501698-1.37298 1.296988-1.58559l0.314247-0.0829 0.153414 2.76336c0.169814 3.05877 0.18601 2.99104-0.47338 3.13938-0.294901 0.0724-0.351874 0.1231-0.312548 0.29306 0.04144 0.20812 0.06135 0.20711 1.87961 0.11437 1.718923-0.0878 1.837617-0.10355 1.857913-0.27643 0.02862-0.20212-0.148214-0.33643-0.456227-0.32071-0.109275 5e-3 -0.282444-0.0622-0.377155-0.15275-0.157504-0.14485-0.196421-0.48687-0.33026-2.89766l-0.151299-2.72523 0.38074 0.0379c0.720681 0.0587 1.280617 0.63218 1.448517 1.50274 0.08184 0.39717 0.124757 0.45232 0.333409 0.44167 0.238466-0.0123 0.237924-0.0218 0.183447-1.00318-0.03015-0.54315-0.09171-1.11335-0.130508-1.27382l-0.07601-0.29236-3.060288 0.15627-3.049816 0.16543z" inkscape:transform-center-x="-0.097546239" inkscape:transform-center-y="0.070158253"/>
   <path d="m80.675132 110.61615c-0.06336 0.0485-0.860323 1.03596-1.761376 2.20492-1.825274 2.35022-2.130919 2.68329-2.498968 2.74512-0.151984 0.0213-0.269796 0.12103-0.305097 0.23629-0.05159 0.16844-0.01538 0.20863 0.359679 0.31378 0.230506 0.0706 0.658704 0.19232 0.951279 0.28193 0.499121 0.14344 0.54012 0.13623 0.597114-0.0499 0.04616-0.15073-0.0031-0.24337-0.196825-0.37059-0.330909-0.21772-0.30193-0.47067 0.134936-1.07388l0.317793-0.43603 1.0632 0.29643 1.063201 0.29643-0.01202 0.70422c-0.0079 0.75399-0.13366 1.00639-0.435097 0.91407-0.283711-0.0869-0.47315-0.0383-0.527468 0.13908-0.04616 0.15072 0.0282 0.19289 0.746339 0.41283 0.440651 0.14436 1.123317 0.35343 1.531147 0.47834 0.67117 0.21496 0.729636 0.21404 0.8079 0.0535 0.05578-0.11868 0.02973-0.22363-0.09586-0.32027-0.101666-0.0797-0.225963-0.24377-0.293621-0.37116-0.05606-0.13355-0.169713-1.53567-0.252936-3.13213-0.08593-1.58759-0.17225-2.95227-0.191422-3.01633-0.04522-0.169-0.854717-0.40722-1.001841-0.30682zm-0.360744 2.50782c-0.0073 0.65717 0.0044 1.25229 0.0058 1.31092 0.0083 0.0995-0.194901 0.0664-0.85097-0.13448-0.64721-0.19822-0.84295-0.28734-0.78921-0.36783 0.649872-0.8871 1.531203-2.0233 1.575529-2.00973 0.02659 8e-3 0.05458 0.55008 0.05884 1.20112z"/>
   <path d="m69.593481 108.59095c-0.124809 0.32481-0.07661 0.45078 0.200876 0.51422 0.536767 0.12446 0.540861 0.23561 0.208913 2.80945-0.326104 2.52855-0.386857 2.71419-0.858168 2.65341-0.217512-0.0281-0.474765 0.25204-0.396108 0.42801 0.0123 0.0477 0.516283 0.1404 1.114435 0.21753l1.07848 0.1391 0.02922-0.22658c0.02338-0.18126-0.03301-0.2438-0.312536-0.36279-0.184482-0.0699-0.360776-0.20313-0.377441-0.28822-0.01667-0.085 0.08238-1.06736 0.227315-2.19115l0.26299-2.03917 1.62914 2.79914 1.629132 2.79914 0.353458 0.0456 0.353446 0.0456 0.367011-2.84573c0.20221-1.56789 0.402378-2.90569 0.440088-2.98375 0.03769-0.078 0.242056-0.16226 0.438216-0.18302 0.291476-0.0453 0.370991-0.0903 0.393199-0.26256 0.02805-0.21751 0.01903-0.21866-1.059498-0.35777l-1.087546-0.14026-0.0339 0.26282c-0.02922 0.22658 0.0024 0.2675 0.228926 0.29674 0.525647 0.0678 0.538809 0.18008 0.287516 2.12856l-0.229091 1.77632-0.347934-0.58848c-0.189166-0.31925-0.823049-1.40526-1.414241-2.39365l-1.065135-1.81425-1.02305-0.14027c-0.561892-0.0725-1.026443-0.11394-1.037835-0.0971z"/>
   <path d="m85.770771 112.29986c-0.18063 0.1871-0.12581 0.3928 0.155549 0.54238 0.445993 0.23961 0.414849 0.4089-0.586388 2.77293-1.004876 2.37261-1.08893 2.49925-1.608048 2.36049-0.263846-0.0713-0.333639-0.0501-0.406459 0.12186-0.0801 0.18912-0.05794 0.20864 0.414854 0.40888 0.26649 0.11287 0.751633 0.30793 1.061106 0.439 0.53672 0.2169 0.566063 0.21943 0.616725 0.028 0.04106-0.14483-0.01578-0.25002-0.203885-0.38038-0.148785-0.10352-0.286611-0.23292-0.30644-0.28186-0.0446-0.11013 0.442969-1.33315 1.530572-3.85323l0.572903-1.32883-0.220984 2.79588c-0.133195 1.53532-0.252134 2.96517-0.280649 3.17613-0.0713 0.52743-0.01811 0.64119 0.321811 0.72433 0.165694 0.0397 0.296929 0.0649 0.305525 0.0686 0.0037-9e-3 0.932968-1.12561 2.061128-2.47273l2.045254-2.45919-1.015504 2.46951c-0.646786 1.55098-1.075337 2.51513-1.179237 2.59279-0.09163 0.0727-0.270535 0.0882-0.449747 0.0326-0.213609-0.0702-0.312818-0.0514-0.391895 0.0875-0.105887 0.1782-0.09231 0.19409 0.707131 0.53268 0.451872 0.2018 1.139588 0.49307 1.535025 0.66055 0.683977 0.3001 0.704911 0.29855 0.788656 0.10082 0.06917-0.16333 0.0358-0.22815-0.180429-0.34001-0.502543-0.27366-0.47604-0.38411 0.557968-2.82551 1.004876-2.37261 1.126647-2.56438 1.547872-2.38597 0.275087 0.11651 0.484436 0.0531 0.517909-0.14563 0.03611-0.15708-0.06837-0.22159-1.260947-0.7571-1.282176-0.56336-1.299369-0.57064-1.465444-0.41789-0.09031 0.0935-0.736772 0.85388-1.440467 1.70149-0.7037 0.84762-1.311116 1.56365-1.358749 1.6043-0.0526 0.0285-3e-3 -0.97453 0.105685-2.23639l0.202274-2.29687-1.295742-0.5792c-1.093054-0.48326-1.306663-0.55341-1.396979-0.45986z"/>
  </g>
  <g fill-opacity="0" stroke="#fc0704" stroke-width=".238125">
   <path d="m37.800709 116.00349c0.08997 0.19441 0.184528 0.23647 0.424572 0.22195 0.393029-0.0316 0.524395 0.09 3.149979 2.72648l1.99115 2.00752 0.450658-0.20855 0.450654-0.20855-0.249348-3.13542c-0.139785-1.71628-0.228384-3.25238-0.197271-3.417 0.03112-0.16459 0.128828-0.37075 0.210335-0.47282 0.108014-0.11435 0.116703-0.25788 0.0472-0.40807l-0.106321-0.22975-0.941418 0.44634-0.950251 0.45043 0.102233 0.22091c0.07361 0.15906 0.15934 0.20522 0.300062 0.16155 0.114224-0.0314 0.314167-0.0166 0.434577 0.035 0.227912 0.0984 0.247044 0.18609 0.454509 2.25727 0.116804 1.17975 0.187163 2.16642 0.160654 2.17868-0.09243 0.032-2.957694-2.89057-3.0681-3.12916-0.08179-0.17671-0.04856-0.2672 0.152564-0.43539 0.196379-0.15524 0.225518-0.25456 0.147824-0.42243l-0.09814-0.21209-1.483867 0.66519-1.496778 0.66049z"/>
   <path d="m45.282065 112.59065c-0.0081 0.24618 0.159851 0.36044 0.430316 0.30132 0.436991-0.10972 0.546194 0.0841 1.384783 2.39752 0.847937 2.33915 0.872013 2.4861 0.442675 2.77796-0.201799 0.14119-0.240154 0.22327-0.167592 0.34291 0.08814 0.16265 0.151466 0.14942 1.553233-0.35872 1.418971-0.51437 1.4588-0.5387 1.422306-0.71992-0.0272-0.15553-0.09751-0.18844-0.324966-0.14489-0.536197 0.0776-0.584573-2e-3 -1.463687-2.42729-0.872881-2.40797-0.896967-2.55492-0.442675-2.77799 0.174366-0.0827 0.207264-0.15294 0.144908-0.32494l-0.07794-0.21501-1.454103 0.49798c-1.227408 0.42548-1.444771 0.52374-1.447245 0.65112z" inkscape:transform-center-x="-0.69453127" inkscape:transform-center-y="-0.42994793"/>
   <circle cx="54.575096" cy="117.62684" r=".66840494" stroke-linecap="round" stroke-linejoin="round" style="paint-order:fill markers stroke"/>
   <path d="m51.713262 109.66157 0.787252-0.15497 0.362123-0.76392 0.377246-0.0735 0.639574 0.57133 0.745267-0.15294-1.20553-1.19424-0.990302 0.20611z" sodipodi:nodetypes="ccccccccc"/>
   <path d="m49.746655 111.19952c0.06292 0.16902 0.15282 0.22892 0.355138 0.22221 0.150247 7e-3 0.318279 0.0463 0.368937 0.098 0.05934 0.0493 0.37868 1.12509 0.711142 2.39218 0.332467 1.2671 0.582426 2.36103 0.554953 2.43317-0.01876 0.0697-0.145824 0.18667-0.273296 0.26649-0.153496 0.0868-0.226197 0.19851-0.211677 0.32455l0.02178 0.1891 2.419522-0.60698c1.332387-0.33105 2.642873-0.6749 2.90736-0.76284l0.487848-0.15588-0.07499-0.46269c-0.04-0.25851-0.132847-0.75362-0.197863-1.1076l-0.120536-0.63626-0.243006 0.0637c-0.208291 0.0546-0.240288 0.10946-0.233289 0.52502-3.41e-4 0.52883-0.19071 1.00548-0.5202 1.30529-0.516854 0.46955-1.826906 0.85039-2.179783 0.6368-0.129195-0.0682-0.23038-0.34771-0.46037-1.22425l-0.298307-1.13691 0.412881-0.0527c0.554003-0.0805 0.908302 0.0678 1.194315 0.52149 0.188393 0.29378 0.280602 0.36235 0.436818 0.32136 0.190931-0.0501 0.188618-0.0589-0.184799-1.48208l-0.375729-1.43198-0.216967 0.057c-0.130183 0.0341-0.203315 0.10898-0.182816 0.18712 0.01821 0.0694 0.01443 0.30231-0.01359 0.51375-0.05559 0.45985-0.317919 0.73275-0.829967 0.86711l-0.347147 0.091-0.25732-0.98069c-0.138905-0.52939-0.234021-1.0332-0.206549-1.10533 0.108954-0.36254 1.419438-0.70638 2.097933-0.55989 0.460271 0.0926 0.894813 0.40528 1.138851 0.80505 0.164204 0.27229 0.229945 0.31072 0.438226 0.25606l0.234332-0.0614-0.212304-0.66785c-0.121668-0.35768-0.279318-0.81723-0.360047-1.01867l-0.139059-0.3531-2.86397 0.75146-2.86397 0.75145z"/>
   <path d="m58.08959 109.40138c-0.01022 0.35411-0.0083 0.92737 0.01128 1.27992 0.03439 0.61937 0.04586 0.64745 0.27444 0.63579 0.198719-0.0101 0.244698-0.0793 0.318138-0.55138 0.137465-0.93393 0.501698-1.37298 1.296988-1.58559l0.314247-0.0829 0.153414 2.76336c0.169814 3.05877 0.18601 2.99104-0.47338 3.13938-0.294901 0.0724-0.351874 0.1231-0.312548 0.29306 0.04144 0.20812 0.06135 0.20711 1.87961 0.11437 1.718923-0.0878 1.837617-0.10355 1.857913-0.27643 0.02862-0.20212-0.148214-0.33643-0.456227-0.32071-0.109275 5e-3 -0.282444-0.0622-0.377155-0.15275-0.157504-0.14485-0.196421-0.48687-0.33026-2.89766l-0.151299-2.72523 0.38074 0.0379c0.720681 0.0587 1.280617 0.63218 1.448517 1.50274 0.08184 0.39717 0.124757 0.45232 0.333409 0.44167 0.238466-0.0123 0.237924-0.0218 0.183447-1.00318-0.03015-0.54315-0.09171-1.11335-0.130508-1.27382l-0.07601-0.29236-3.060288 0.15627-3.049816 0.16543z" inkscape:transform-center-x="-0.097546239" inkscape:transform-center-y="0.070158253"/>
   <path d="m80.675132 110.61615c-0.06336 0.0485-0.860323 1.03596-1.761376 2.20492-1.825274 2.35022-2.130919 2.68329-2.498968 2.74512-0.151984 0.0213-0.269796 0.12103-0.305097 0.23629-0.05159 0.16844-0.01538 0.20863 0.359679 0.31378 0.230506 0.0706 0.658704 0.19232 0.951279 0.28193 0.499121 0.14344 0.54012 0.13623 0.597114-0.0499 0.04616-0.15073-0.0031-0.24337-0.196825-0.37059-0.330909-0.21772-0.30193-0.47067 0.134936-1.07388l0.317793-0.43603 1.0632 0.29643 1.063201 0.29643-0.01202 0.70422c-0.0079 0.75399-0.13366 1.00639-0.435097 0.91407-0.283711-0.0869-0.47315-0.0383-0.527468 0.13908-0.04616 0.15072 0.0282 0.19289 0.746339 0.41283 0.440651 0.14436 1.123317 0.35343 1.531147 0.47834 0.67117 0.21496 0.729636 0.21404 0.8079 0.0535 0.05578-0.11868 0.02973-0.22363-0.09586-0.32027-0.101666-0.0797-0.225963-0.24377-0.293621-0.37116-0.05606-0.13355-0.169713-1.53567-0.252936-3.13213-0.08593-1.58759-0.17225-2.95227-0.191422-3.01633-0.04522-0.169-0.854717-0.40722-1.001841-0.30682zm-0.360744 2.50782c-0.0073 0.65717 0.0044 1.25229 0.0058 1.31092 0.0083 0.0995-0.194901 0.0664-0.85097-0.13448-0.64721-0.19822-0.84295-0.28734-0.78921-0.36783 0.649872-0.8871 1.531203-2.0233 1.575529-2.00973 0.02659 8e-3 0.05458 0.55008 0.05884 1.20112z"/>
   <path d="m69.593481 108.59095c-0.124809 0.32481-0.07661 0.45078 0.200876 0.51422 0.536767 0.12446 0.540861 0.23561 0.208913 2.80945-0.326104 2.52855-0.386857 2.71419-0.858168 2.65341-0.217512-0.0281-0.474765 0.25204-0.396108 0.42801 0.0123 0.0477 0.516283 0.1404 1.114435 0.21753l1.07848 0.1391 0.02922-0.22658c0.02338-0.18126-0.03301-0.2438-0.312536-0.36279-0.184482-0.0699-0.360776-0.20313-0.377441-0.28822-0.01667-0.085 0.08238-1.06736 0.227315-2.19115l0.26299-2.03917 1.62914 2.79914 1.629132 2.79914 0.353458 0.0456 0.353446 0.0456 0.367011-2.84573c0.20221-1.56789 0.402378-2.90569 0.440088-2.98375 0.03769-0.078 0.242056-0.16226 0.438216-0.18302 0.291476-0.0453 0.370991-0.0903 0.393199-0.26256 0.02805-0.21751 0.01903-0.21866-1.059498-0.35777l-1.087546-0.14026-0.0339 0.26282c-0.02922 0.22658 0.0024 0.2675 0.228926 0.29674 0.525647 0.0678 0.538809 0.18008 0.287516 2.12856l-0.229091 1.77632-0.347934-0.58848c-0.189166-0.31925-0.823049-1.40526-1.414241-2.39365l-1.065135-1.81425-1.02305-0.14027c-0.561892-0.0725-1.026443-0.11394-1.037835-0.0971z"/>
   <path d="m85.770771 112.29986c-0.18063 0.1871-0.12581 0.3928 0.155549 0.54238 0.445993 0.23961 0.414849 0.4089-0.586388 2.77293-1.004876 2.37261-1.08893 2.49925-1.608048 2.36049-0.263846-0.0713-0.333639-0.0501-0.406459 0.12186-0.0801 0.18912-0.05794 0.20864 0.414854 0.40888 0.26649 0.11287 0.751633 0.30793 1.061106 0.439 0.53672 0.2169 0.566063 0.21943 0.616725 0.028 0.04106-0.14483-0.01578-0.25002-0.203885-0.38038-0.148785-0.10352-0.286611-0.23292-0.30644-0.28186-0.0446-0.11013 0.442969-1.33315 1.530572-3.85323l0.572903-1.32883-0.220984 2.79588c-0.133195 1.53532-0.252134 2.96517-0.280649 3.17613-0.0713 0.52743-0.01811 0.64119 0.321811 0.72433 0.165694 0.0397 0.296929 0.0649 0.305525 0.0686 0.0037-9e-3 0.932968-1.12561 2.061128-2.47273l2.045254-2.45919-1.015504 2.46951c-0.646786 1.55098-1.075337 2.51513-1.179237 2.59279-0.09163 0.0727-0.270535 0.0882-0.449747 0.0326-0.213609-0.0702-0.312818-0.0514-0.391895 0.0875-0.105887 0.1782-0.09231 0.19409 0.707131 0.53268 0.451872 0.2018 1.139588 0.49307 1.535025 0.66055 0.683977 0.3001 0.704911 0.29855 0.788656 0.10082 0.06917-0.16333 0.0358-0.22815-0.180429-0.34001-0.502543-0.27366-0.47604-0.38411 0.557968-2.82551 1.004876-2.37261 1.126647-2.56438 1.547872-2.38597 0.275087 0.11651 0.484436 0.0531 0.517909-0.14563 0.03611-0.15708-0.06837-0.22159-1.260947-0.7571-1.282176-0.56336-1.299369-0.57064-1.465444-0.41789-0.09031 0.0935-0.736772 0.85388-1.440467 1.70149-0.7037 0.84762-1.311116 1.56365-1.358749 1.6043-0.0526 0.0285-3e-3 -0.97453 0.105685-2.23639l0.202274-2.29687-1.295742-0.5792c-1.093054-0.48326-1.306663-0.55341-1.396979-0.45986z"/>
  </g>
 </g>
</svg>
